<svg width="200" height="70" viewBox="0 0 200 70" fill="none" xmlns="http://www.w3.org/2000/svg">
<g clip-path="url(#clip0_165_601)">
<path d="M170 1.5C185.71 1.5 198.5 14.29 198.5 30C198.5 31.19 198.42 32.43 198.25 33.69L198.24 33.74V33.79L196.33 62.52C196.08 66.21 192.92 68.42 190.01 68.42C188.78 68.42 187.57 68.05 186.52 67.34L173.52 58.63L173.08 58.34L172.55 58.39C171.64 58.47 170.8 58.51 170 58.51H30C29.19 58.51 28.35 58.47 27.45 58.39L26.92 58.34L26.48 58.63L13.48 67.34C12.43 68.05 11.22 68.42 9.99 68.42C7.08 68.42 3.92 66.21 3.67 62.52L1.76 33.78V33.73L1.75 33.68C1.58 32.43 1.5 31.19 1.5 30C1.5 14.29 14.29 1.5 30 1.5H170ZM170 0H30C13.43 0 0 13.43 0 30C0 31.32 0.09 32.61 0.26 33.88L2.17 62.61C2.46 66.97 6.1 69.91 9.98 69.91C11.44 69.91 12.94 69.49 14.3 68.58L27.3 59.87C28.2 59.95 29.09 60 30 60H170C170.91 60 171.8 59.95 172.69 59.87L185.69 68.58C187.06 69.49 188.55 69.91 190.01 69.91C193.89 69.91 197.53 66.97 197.82 62.61L199.73 33.88C199.89 32.61 199.99 31.31 199.99 30C200 13.43 186.57 0 170 0Z" fill="#EE0000"/>
<g clip-path="url(#clip1_165_601)">
<g opacity="0.03">
<path d="M200 30C200 13.43 186.57 0 170 0H30C13.43 0 0 13.43 0 30C0 31.32 0.09 32.61 0.26 33.88L2.17 62.61C2.57 68.61 9.31 71.93 14.31 68.58L27.31 59.87C28.2 59.95 29.09 60 30 60H170C170.91 60 171.8 59.95 172.69 59.87L185.69 68.58C190.69 71.93 197.43 68.61 197.83 62.61L199.74 33.88C199.91 32.61 200 31.32 200 30Z" fill="#EE0000"/>
</g>
</g>
</g>
<path d="M60.6938 34.94V22.88H62.6338V27.2H67.4138V22.88H69.3538V34.94H60.6938ZM77.0138 29.72H74.1738V39.8H72.1938V21.36H74.1738V28H77.0138V29.72ZM62.6338 33.24H67.4138V28.9H62.6338V33.24ZM79.3169 32.66V26.88H89.4369V24.5H79.2369V22.82H91.3969V28.56H81.2769V30.98H91.8369V32.66H86.3769V35.66H93.8569V37.34H76.9369V35.66H84.4169V32.66H79.3169ZM111.42 29.9H108.58V39.8H106.6V21.36H108.58V28.18H111.42V29.9ZM94.52 34.16C95.5867 33.5333 96.4867 32.98 97.22 32.5C97.9667 32.0067 98.58 31.56 99.06 31.16C99.5533 30.76 99.94 30.3867 100.22 30.04C100.5 29.68 100.707 29.32 100.84 28.96C100.973 28.6 101.053 28.2333 101.08 27.86C101.12 27.4733 101.14 27.04 101.14 26.56V24.78H94.88V23.08H103.1V26.58C103.1 27.1933 103.08 27.74 103.04 28.22C103.013 28.7 102.92 29.16 102.76 29.6C102.613 30.0267 102.38 30.4533 102.06 30.88C101.753 31.2933 101.32 31.74 100.76 32.22C100.2 32.6867 99.4933 33.2067 98.64 33.78C97.8 34.3533 96.7733 35.0067 95.56 35.74L94.52 34.16ZM112.123 34.2C113.19 33.5733 114.09 33.02 114.823 32.54C115.57 32.0467 116.19 31.6 116.683 31.2C117.176 30.7867 117.563 30.4067 117.843 30.06C118.123 29.7 118.33 29.3467 118.463 29C118.61 28.64 118.696 28.2667 118.723 27.88C118.763 27.4933 118.783 27.06 118.783 26.58V24.76H112.483V23.06H120.743V26.6C120.743 27.2 120.723 27.7467 120.683 28.24C120.656 28.72 120.563 29.18 120.403 29.62C120.243 30.0467 120.003 30.4733 119.683 30.9C119.376 31.3133 118.936 31.76 118.363 32.24C117.803 32.72 117.096 33.2467 116.243 33.82C115.403 34.3933 114.376 35.0467 113.163 35.78L112.123 34.2ZM124.643 39.8V21.36H126.623V39.8H124.643Z" fill="#EE0000"/>
<path d="M140 24L146 30L140 36" stroke="#EE0000" stroke-width="1.5"/>
<defs>
<clipPath id="clip0_165_601">
<rect width="200" height="69.91" fill="white"/>
</clipPath>
<clipPath id="clip1_165_601">
<rect width="200" height="69.91" fill="white"/>
</clipPath>
</defs>
</svg>
