<svg width="2031" height="1634" viewBox="0 0 2031 1634" fill="none" xmlns="http://www.w3.org/2000/svg">
<path d="M1495.4 961.282L1348.18 639.149H1027.67L883.031 506.902H1440.98L1566.43 781.361L1848.26 652.077L1609.68 132.516H1002.47V0H1702.19L2031 715.642L1495.4 961.282Z" fill="#ECECEC"/>
<path d="M612.651 457.881L464.572 781.361L182.736 652.077L421.323 132.516H1002.47V0H328.809L0 715.642L535.604 961.282L660.483 688.169L1137.37 1130.97L1280.01 1263.48L1536.35 1501.31L1679.28 1633.83H1879.77L612.651 457.881Z" fill="#ECECEC"/>
<path d="M536.179 1501.31L643.014 1263.48H1280.01L1137.37 1130.96H549.641L323.656 1633.83H1679.28L1536.36 1501.31H536.179Z" fill="#ECECEC"/>
</svg>
