<svg width="20" height="20" viewBox="0 0 20 20" fill="none" xmlns="http://www.w3.org/2000/svg">
<g clip-path="url(#clip0_580_1717)">
<path d="M10 19.5C15.2467 19.5 19.5 15.2467 19.5 10C19.5 4.75329 15.2467 0.5 10 0.5C4.75329 0.5 0.5 4.75329 0.5 10C0.5 15.2467 4.75329 19.5 10 19.5Z" fill="white"/>
<path d="M10 1C15 1 19 5 19 10C19 15 15 19 10 19C5 19 1 15 1 10C1 5 5 1 10 1ZM10 0C4.5 0 0 4.5 0 10C0 15.5 4.5 20 10 20C15.5 20 20 15.5 20 10C20 4.5 15.5 0 10 0Z" fill="#DDDDDD"/>
<path d="M10.1 9.19995C10.6 8.89995 11 8.49995 11 7.99995C11 7.39995 10.5 6.99995 9.99995 6.99995C9.39995 6.99995 8.89995 7.39995 8.89995 8.09995H7.19995C7.19995 6.39995 8.49995 5.69995 9.99995 5.69995C11.6 5.69995 12.8 6.59995 12.8 7.99995C12.8 8.99995 12.3 9.59995 11.5 9.99995C10.8 10.4 10.6 10.8 10.5 11.6V11.7H8.99995V11.6C8.99995 10.1 9.39995 9.69995 10.1 9.19995ZM8.79995 13.4C8.79995 12.9 9.19995 12.4 9.79995 12.4C10.3 12.4 10.8 12.8 10.8 13.4C10.8 14 10.3 14.4 9.79995 14.4C9.29995 14.4 8.79995 13.9 8.79995 13.4Z" fill="#999999"/>
</g>
<defs>
<clipPath id="clip0_580_1717">
<rect width="20" height="20" fill="white"/>
</clipPath>
</defs>
</svg>
