<svg width="48" height="48" viewBox="0 0 48 48" fill="none" xmlns="http://www.w3.org/2000/svg">
<g clip-path="url(#clip0_263_1457)">
<path d="M48 23.6542C48 27.7003 47.2046 31.1585 45.6139 34.4438C44.7493 36.1729 44.611 37.902 45.268 39.7349C45.7868 41.1527 46.2363 42.6398 46.7205 44.0576C47.1355 45.3718 46.4784 46.5821 45.1643 46.8242C44.7839 46.8934 44.3689 46.8242 43.9885 46.6859C42.5015 46.2017 41.0144 45.7176 39.5274 45.1988C37.8675 44.6455 36.2767 44.7147 34.7205 45.4755C32.6456 46.513 30.4669 47.2392 28.1845 47.6196C26.1095 48 24.0346 48.0692 21.9597 47.8963C16.2536 47.4121 11.3776 45.1297 7.29686 41.1527C3.59657 37.6254 1.24499 33.3372 0.415016 28.3228C-0.795359 21.1988 0.760837 14.732 5.25651 9.06052C8.85306 4.49568 13.5562 1.65994 19.2623 0.484152C21.3372 0.0691664 23.4121 -0.103744 25.4871 0.0345843C31.2277 0.414988 36.2075 2.55908 40.392 6.46686C44.0577 9.89049 46.4093 14.0403 47.4813 18.951C47.8271 20.611 48.0346 22.3055 48 23.6542ZM19.1931 24.2767C19.0894 23.2046 19.0202 22.3401 18.9165 21.5101C18.8819 21.1988 18.7781 20.9222 18.6398 20.611C18.3631 19.8501 17.879 19.2622 17.049 19.1239C15.5274 18.8473 14.3516 19.1585 13.8675 20.9568C13.6254 21.8559 13.5562 22.7896 13.5216 23.7233C13.4871 24.8991 13.5216 26.0749 13.902 27.1816C14.2825 28.4265 15.1124 29.0144 16.3574 29.0144C17.6023 29.0144 18.4323 28.4611 18.7435 27.1816C18.9856 26.1787 19.0548 25.1066 19.1931 24.2767ZM34.6167 24C34.5822 24 34.5476 24 34.5476 24C34.513 23.4467 34.5476 22.8588 34.4438 22.3401C34.3401 21.6484 34.1672 20.9568 33.8905 20.3343C33.6139 19.6427 33.0606 19.2277 32.3343 19.1239C30.6398 18.8127 29.6023 19.5043 29.1528 21.1643C28.8069 22.5476 28.8069 23.9308 28.9107 25.3487C28.9453 26.0749 29.1528 26.8012 29.3603 27.4928C29.6023 28.2536 30.1211 28.8069 30.9165 28.9452C32.4727 29.2565 33.683 28.8069 34.1326 27.0778C34.4093 26.0749 34.4784 25.0375 34.6167 24Z" fill="white"/>
</g>
<defs>
<clipPath id="clip0_263_1457">
<rect width="48" height="48" fill="white"/>
</clipPath>
</defs>
</svg>
