<svg width="346" height="68" viewBox="0 0 346 68" fill="none" xmlns="http://www.w3.org/2000/svg">
<g clip-path="url(#clip0_209_244)">
<path d="M53.7734 45.4777V68.0228H40.4677V48.4868L34.5948 41.9671H13.3057V68H0V0H42.9224L53.3834 10.4861V31.0935L46.7306 37.7955L53.7734 45.4777ZM13.3057 31.0935H36.866L40.2842 27.6969V14.4754L36.866 11.0788H13.3057V31.0935Z" fill="#363636"/>
<path d="M122.802 33.3277V27.3096L126.817 23.3203H133.768L137.668 27.4008V33.2365L133.768 37.317H126.817L122.802 33.3277ZM122.802 64.0337V58.0156L126.817 54.0263H133.768L137.668 58.1068V63.9425L133.768 68.023H126.817L122.802 64.0337Z" fill="#363636"/>
<path d="M146.959 56.83V11.17L158.2 0H191.648L202.706 10.9876V21.3825H189.4V15.8431L184.812 11.2839H165.266L160.288 16.2306V51.7922L165.266 56.7389H184.812L189.4 52.1797V46.6403H202.706V57.0352L191.648 68.0228H158.2L146.959 56.83Z" fill="#363636"/>
<path d="M210.987 56.83V11.17L222.228 0H257.419L268.661 11.17V56.83L257.419 68H222.251L210.987 56.83ZM250.4 56.7389L255.378 51.7922V16.2306L250.4 11.2839H229.271L224.293 16.2306V51.7922L229.271 56.7389H250.4Z" fill="#363636"/>
<path d="M280.429 0H292.748L313.097 43.9048H313.281L333.698 0H346.017V68H333.216V26.6255H333.01L317.272 58.4941H309.059L293.414 26.6255H293.207V68.0228H280.406V0H280.429Z" fill="#363636"/>
<path d="M115.484 56.7393H66.0009V67.9092H115.484V56.7393Z" fill="#363636"/>
<path d="M115.484 28.427H66.0009V39.597H115.484V28.427Z" fill="#363636"/>
<path d="M115.484 0.0913086H66.0009V11.2613H115.484V0.0913086Z" fill="#363636"/>
<path d="M79.3066 28.427H66.0009V67.9322H79.3066V28.427Z" fill="#363636"/>
</g>
<defs>
<clipPath id="clip0_209_244">
<rect width="346" height="68" fill="white"/>
</clipPath>
</defs>
</svg>
