<svg width="620" height="69" viewBox="0 0 620 69" fill="none" xmlns="http://www.w3.org/2000/svg">
<g clip-path="url(#clip0_209_301)">
<path d="M53.7734 46.0507V68.7393H40.4677V49.0789L34.5948 42.5178H13.3057V68.7163H0V0.283691H42.9224L53.3834 10.8365V31.575L46.7306 38.3197L53.7734 46.0507ZM13.3057 31.575H36.866L40.2842 28.1568V14.8511L36.866 11.433H13.3057V31.575Z" fill="black"/>
<path d="M122.802 33.8235V27.7671L126.817 23.7524H133.768L137.668 27.8589V33.7317L133.768 37.8381H126.817L122.802 33.8235ZM122.802 64.7248V58.6684L126.817 54.6538H133.768L137.668 58.7602V64.6331L133.768 68.7395H126.817L122.802 64.7248Z" fill="black"/>
<path d="M146.959 57.4753V11.5247L158.2 0.283691H191.648L202.706 11.3412V21.8022H189.4V16.2276L184.812 11.6394H165.266L160.288 16.6176V52.4054L165.266 57.3835H184.812L189.4 52.7953V47.2207H202.706V57.6818L191.648 68.7393H158.2L146.959 57.4753Z" fill="black"/>
<path d="M210.987 57.4753V11.5247L222.228 0.283691H257.42L268.661 11.5247V57.4753L257.42 68.7163H222.251L210.987 57.4753ZM250.4 57.3835L255.378 52.4054V16.6176L250.4 11.6394H229.271L224.293 16.6176V52.4054L229.271 57.3835H250.4Z" fill="black"/>
<path d="M280.429 0.283691H292.748L313.097 44.4678H313.281L333.698 0.283691H346.017V68.7163H333.216V27.0786H333.01L317.272 59.15H309.059L293.414 27.0786H293.207V68.7393H280.406V0.283691H280.429Z" fill="black"/>
<path d="M358.726 0.283691H371.046L391.394 44.4678H391.578L412.018 0.283691H424.337V68.7163H411.536V27.0786H411.33L395.592 59.15H387.38L371.734 27.0786H371.527V68.7393H358.726V0.283691Z" fill="black"/>
<path d="M496.303 0.283691H508.232L538.743 46.739H538.95V0.283691H551.751V68.7163H539.822L509.31 22.3758H509.104V68.7163H496.303V0.283691Z" fill="black"/>
<path d="M564.46 0.283691H608.254L620 12.0065V56.9935L608.254 68.7163H564.46V0.283691ZM601.716 57.3835L606.694 52.4054V16.6176L601.716 11.6394H577.766V57.4065H601.716V57.3835Z" fill="black"/>
<path d="M115.484 57.3838H66.0009V68.6248H115.484V57.3838Z" fill="black"/>
<path d="M115.484 28.8916H66.0009V40.1326H115.484V28.8916Z" fill="black"/>
<path d="M115.484 0.375488H66.0009V11.6165H115.484V0.375488Z" fill="black"/>
<path d="M486.53 57.3838H437.047V68.6248H486.53V57.3838Z" fill="black"/>
<path d="M486.53 28.8916H437.047V40.1326H486.53V28.8916Z" fill="black"/>
<path d="M486.53 0.375488H437.047V11.6165H486.53V0.375488Z" fill="black"/>
<path d="M79.3066 28.8916H66.0009V68.6481H79.3066V28.8916Z" fill="black"/>
<path d="M450.352 28.8916H437.047V68.7399H450.352V28.8916Z" fill="black"/>
</g>
<defs>
<clipPath id="clip0_209_301">
<rect width="620" height="68.4326" fill="white" transform="translate(0 0.283691)"/>
</clipPath>
</defs>
</svg>
