<svg width="22" height="28" viewBox="0 0 22 28" fill="none" xmlns="http://www.w3.org/2000/svg">
<g clip-path="url(#clip0_271_926)">
<path d="M18.3738 14.8808C18.3414 11.341 21.1744 9.62975 21.2877 9.56264C19.7013 7.14683 17.2244 6.82807 16.3503 6.77774C14.2458 6.54287 12.2546 8.05276 11.1862 8.05276C10.1177 8.05276 8.46652 6.79452 6.73436 6.84485C4.41943 6.8784 2.31494 8.22052 1.13319 10.3511C-1.24651 14.6292 0.518028 20.9875 2.84915 24.4602C3.98234 26.1546 5.32598 28.0671 7.1067 28C8.82266 27.9329 9.4702 26.8592 11.5423 26.8592C13.6144 26.8592 14.1972 28 16.0103 27.9833C17.8558 27.9497 19.0213 26.2385 20.1383 24.5441C21.4334 22.5644 21.9838 20.6519 22.0162 20.5513C21.9676 20.5345 18.4062 19.1253 18.3738 14.8808Z" fill="#0B0E1E"/>
<path d="M14.9742 4.46255C15.9132 3.2882 16.5607 1.62732 16.3826 0C15.0228 0.0503295 13.3716 0.939485 12.4003 2.11384C11.5261 3.17076 10.7491 4.84841 10.9595 6.44218C12.4812 6.57639 14.0353 5.65369 14.9742 4.46255Z" fill="#0B0E1E"/>
</g>
<defs>
<clipPath id="clip0_271_926">
<rect width="22" height="28" fill="white"/>
</clipPath>
</defs>
</svg>
