<svg width="28" height="28" viewBox="0 0 28 28" fill="none" xmlns="http://www.w3.org/2000/svg">
<g clip-path="url(#clip0_288_1059)">
<path d="M28 13.9947C28 6.26499 21.735 0 13.9947 0C6.26499 0 0 6.26499 0 13.9947C0 20.6445 4.63994 26.2039 10.8622 27.6258V17.8221L8.34975 17.9611V13.7274H10.8622C10.8622 13.7274 10.8622 11.4716 10.8622 9.34402C10.8622 7.2165 12.9576 5.38832 14.3475 5.38832C16.5819 5.38832 18.6774 5.38832 18.6774 5.38832V9.62199C18.6774 9.62199 17.4265 9.62199 16.4429 9.62199C15.748 9.62199 15.609 10.1886 15.609 10.6056C15.609 11.7388 15.609 13.7167 15.609 13.7167H19.6502L18.8163 17.9504H15.609V27.8824C22.5796 27.1019 28 21.1898 28 13.9947Z" fill="#126FE8"/>
<path d="M18.8163 17.9718L19.6502 13.7381H15.609C15.609 13.7381 15.609 11.7603 15.609 10.627C15.609 10.1994 15.748 9.64342 16.4429 9.64342C17.4158 9.64342 18.6774 9.64342 18.6774 9.64342V5.39905C18.6774 5.39905 16.5819 5.39905 14.3475 5.39905C12.9576 5.39905 10.8622 7.23792 10.8622 9.35476C10.8622 11.4716 10.8622 13.7381 10.8622 13.7381H8.34975V17.9718L10.8622 17.8328V27.6365C11.8778 27.8717 12.9255 28 14.0053 28C14.5506 28 15.0851 27.9573 15.609 27.9038V17.9718H18.8163Z" fill="white"/>
</g>
<defs>
<clipPath id="clip0_288_1059">
<rect width="28" height="28" fill="white"/>
</clipPath>
</defs>
</svg>
