<svg width="26" height="26" viewBox="0 0 26 26" fill="none" xmlns="http://www.w3.org/2000/svg">
<g clip-path="url(#clip0_271_920)">
<path fill-rule="evenodd" clip-rule="evenodd" d="M26 13.3C26 12.3815 25.9125 11.4875 25.7626 10.6425H13.2686V15.6759H20.4027C20.0903 17.3047 19.1658 18.6764 17.754 19.5949V22.8525H22.0394C24.5507 20.5869 26 17.2557 26 13.3Z" fill="#4285F4"/>
<path fill-rule="evenodd" clip-rule="evenodd" d="M13.2561 26C16.8419 26 19.8405 24.8366 22.0394 22.8526L17.754 19.595C16.567 20.3787 15.0428 20.8319 13.2686 20.8319C9.82028 20.8319 6.89668 18.5417 5.84719 15.4678H1.41182V18.8356C3.59827 23.0853 8.08361 26 13.2561 26Z" fill="#34A853"/>
<path fill-rule="evenodd" clip-rule="evenodd" d="M5.84719 15.4678C5.58482 14.684 5.43489 13.8512 5.43489 12.9939C5.43489 12.1366 5.58482 11.3039 5.84719 10.5201V7.16443H1.41182C0.512254 8.91572 0 10.8997 0 12.9939C0 15.0881 0.512254 17.0721 1.41182 18.8356L5.84719 15.4678Z" fill="#FBBC05"/>
<path fill-rule="evenodd" clip-rule="evenodd" d="M13.2561 5.16816C15.2052 5.16816 16.9543 5.82949 18.3287 7.1154L22.1269 3.39237C19.8405 1.28592 16.8419 0 13.2561 0C8.08361 0 3.59827 2.91474 1.41182 7.16439L5.84719 10.5323C6.88419 7.45831 9.80778 5.16816 13.2561 5.16816Z" fill="#EA4335"/>
</g>
<defs>
<clipPath id="clip0_271_920">
<rect width="26" height="26" fill="white"/>
</clipPath>
</defs>
</svg>
