<svg width="19" height="23" viewBox="0 0 19 23" fill="none" xmlns="http://www.w3.org/2000/svg">
<g clip-path="url(#clip0_288_1053)">
<path d="M15.8683 12.2236C15.8403 9.31585 18.287 7.91022 18.3848 7.8551C17.0147 5.87068 14.8756 5.60884 14.1207 5.5675C12.3032 5.37457 10.5835 6.61483 9.66078 6.61483C8.73805 6.61483 7.312 5.58128 5.81604 5.62262C3.81678 5.65018 1.99927 6.75264 0.978664 8.50279C-1.07652 12.0169 0.447391 17.2398 2.46064 20.0924C3.4393 21.4842 4.59971 23.0552 6.13761 23.0001C7.61958 22.945 8.17881 22.063 9.96836 22.063C11.7579 22.063 12.2612 23.0001 13.8271 22.9863C15.4209 22.9588 16.4275 21.5531 17.3922 20.1613C18.5107 18.5351 18.986 16.9641 19.014 16.8815C18.972 16.8677 15.8963 15.7101 15.8683 12.2236Z" fill="#0B0E1E"/>
<path d="M12.9323 3.66567C13.7432 2.70102 14.3024 1.33673 14.1486 0C12.9743 0.0413421 11.5482 0.77172 10.7094 1.73637C9.95438 2.60455 9.2833 3.98262 9.46505 5.29179C10.7793 5.40204 12.1214 4.6441 12.9323 3.66567Z" fill="#0B0E1E"/>
</g>
<defs>
<clipPath id="clip0_288_1053">
<rect width="19" height="23" fill="white"/>
</clipPath>
</defs>
</svg>
