<svg width="22" height="22" viewBox="0 0 22 22" fill="none" xmlns="http://www.w3.org/2000/svg">
<g clip-path="url(#clip0_272_1230)">
<path d="M22 10.9958C22 4.92249 17.0775 0 10.9958 0C4.92249 0 0 4.92249 0 10.9958C0 16.2207 3.64567 20.5888 8.53455 21.706V14.0031L6.56052 14.1123V10.7858H8.53455C8.53455 10.7858 8.53455 9.01336 8.53455 7.34173C8.53455 5.6701 10.181 4.23368 11.273 4.23368C13.0286 4.23368 14.6751 4.23368 14.6751 4.23368V7.56014C14.6751 7.56014 13.6922 7.56014 12.9194 7.56014C12.3734 7.56014 12.2642 8.00535 12.2642 8.33295C12.2642 9.22337 12.2642 10.7774 12.2642 10.7774H15.4395L14.7843 14.1039H12.2642V21.9076C17.7411 21.2944 22 16.6491 22 10.9958Z" fill="#126FE8"/>
<path d="M14.7843 14.1208L15.4395 10.7943H12.2642C12.2642 10.7943 12.2642 9.24028 12.2642 8.34986C12.2642 8.01386 12.3734 7.57705 12.9194 7.57705C13.6838 7.57705 14.6751 7.57705 14.6751 7.57705V4.24219C14.6751 4.24219 13.0286 4.24219 11.273 4.24219C10.181 4.24219 8.53455 5.68701 8.53455 7.35024C8.53455 9.01347 8.53455 10.7943 8.53455 10.7943H6.56052V14.1208L8.53455 14.0116V21.7145C9.33257 21.8993 10.1558 22.0001 11.0042 22.0001C11.4326 22.0001 11.8526 21.9665 12.2642 21.9245V14.1208H14.7843Z" fill="white"/>
</g>
<defs>
<clipPath id="clip0_272_1230">
<rect width="22" height="22" fill="white"/>
</clipPath>
</defs>
</svg>
