<svg width="22" height="22" viewBox="0 0 22 22" fill="none" xmlns="http://www.w3.org/2000/svg">
<g clip-path="url(#clip0_288_1047)">
<path fill-rule="evenodd" clip-rule="evenodd" d="M22 11.2538C22 10.4766 21.926 9.72015 21.7991 9.00513H11.2273V13.2642H17.2638C16.9995 14.6424 16.2172 15.8031 15.0226 16.5803V19.3367H18.6487C20.7737 17.4196 22 14.601 22 11.2538Z" fill="#4285F4"/>
<path fill-rule="evenodd" clip-rule="evenodd" d="M11.2167 22.0001C14.2508 22.0001 16.7881 21.0156 18.6487 19.3368L15.0226 16.5804C14.0183 17.2436 12.7285 17.627 11.2273 17.627C8.30946 17.627 5.83565 15.6892 4.94761 13.0881H1.19461V15.9379C3.04468 19.5337 6.83997 22.0001 11.2167 22.0001Z" fill="#34A853"/>
<path fill-rule="evenodd" clip-rule="evenodd" d="M4.94762 13.0882C4.72561 12.425 4.59875 11.7203 4.59875 10.9949C4.59875 10.2695 4.72561 9.56485 4.94762 8.90163V6.06226H1.19462C0.433445 7.54412 0 9.22288 0 10.9949C0 12.7669 0.433445 14.4457 1.19462 15.9379L4.94762 13.0882Z" fill="#FBBC05"/>
<path fill-rule="evenodd" clip-rule="evenodd" d="M11.2167 4.37306C12.8659 4.37306 14.346 4.93264 15.5089 6.02072L18.7227 2.87047C16.7881 1.08808 14.2508 0 11.2167 0C6.83997 0 3.04468 2.46632 1.19461 6.06218L4.94761 8.91192C5.82508 6.31088 8.29889 4.37306 11.2167 4.37306Z" fill="#EA4335"/>
</g>
<defs>
<clipPath id="clip0_288_1047">
<rect width="22" height="22" fill="white"/>
</clipPath>
</defs>
</svg>
