<svg width="27" height="27" viewBox="0 0 27 27" fill="none" xmlns="http://www.w3.org/2000/svg">
<path d="M26.19 13.09C26.19 5.86 20.33 0 13.09 0C5.86 0 0 5.86 0 13.09C0 19.31 4.34 24.51 10.16 25.84V16.67L7.81 16.8V12.84H10.16C10.16 12.84 10.16 10.73 10.16 8.74C10.16 6.75 12.12 5.04 13.42 5.04C15.51 5.04 17.47 5.04 17.47 5.04V9C17.47 9 16.3 9 15.38 9C14.73 9 14.6 9.53 14.6 9.92C14.6 10.98 14.6 12.83 14.6 12.83H18.38L17.6 16.79H14.6V26.08C21.12 25.35 26.19 19.82 26.19 13.09Z" fill="#EE0000"/>
</svg>
