<svg width="25" height="25" viewBox="0 0 25 25" fill="none" xmlns="http://www.w3.org/2000/svg">
<path d="M12.05 8.02979C9.88003 8.02979 8.03003 9.87979 8.03003 12.0498C8.03003 14.2198 9.88003 16.0698 12.05 16.0698C14.22 16.0698 16.07 14.2198 16.07 12.0498C16.07 9.87979 14.22 8.02979 12.05 8.02979Z" fill="#EE0000"/>
<path d="M17.2 0H7.01C3.07 0 0 3.07 0 6.9V17.09C0 21.03 3.07 24.1 7.01 24.1H17.2C21.03 24.1 24.1 21.03 24.1 17.09V6.9C24.1 3.07 21.03 0 17.2 0ZM12.05 18.4C8.55 18.4 5.81 15.55 5.81 12.16C5.81 8.76 8.55 5.81 12.05 5.81C15.55 5.81 18.29 8.66 18.29 12.05C18.29 15.44 15.55 18.4 12.05 18.4ZM18.51 7.12C17.74 7.12 17.09 6.46 17.09 5.7C17.09 4.93 17.75 4.28 18.51 4.28C19.28 4.28 19.93 4.94 19.93 5.7C19.93 6.46 19.28 7.12 18.51 7.12Z" fill="#EE0000"/>
</svg>
