<svg width="29" height="20" viewBox="0 0 29 20" fill="none" xmlns="http://www.w3.org/2000/svg">
<path d="M27.6 3.1C27.28 1.88 26.32 0.92 25.11 0.59C22.9 0 14.09 0 14.09 0C14.09 0 5.28 0 3.08 0.59C1.87 0.92 0.91 1.88 0.59 3.1C0 5.31 0 9.93 0 9.93C0 9.93 0 14.54 0.59 16.76C0.91 17.98 1.87 18.94 3.08 19.27C5.28 19.86 14.09 19.86 14.09 19.86C14.09 19.86 22.9 19.86 25.1 19.27C26.31 18.94 27.27 17.98 27.59 16.76C28.18 14.55 28.18 9.93 28.18 9.93C28.18 9.93 28.18 5.31 27.6 3.1ZM11.21 14.12V5.74L18.58 9.93L11.21 14.12Z" fill="#EE0000"/>
</svg>
