<svg width="27" height="27" viewBox="0 0 27 27" fill="none" xmlns="http://www.w3.org/2000/svg">
<path d="M8.73759 12.3188C9.05634 12.3188 9.32353 12.2109 9.53916 11.9953C9.75478 11.7797 9.8626 11.5125 9.8626 11.1938C9.8626 10.875 9.75478 10.6078 9.53916 10.3922C9.32353 10.1766 9.05634 10.0688 8.73759 10.0688C8.41884 10.0688 8.15166 10.1766 7.93603 10.3922C7.72041 10.6078 7.61259 10.875 7.61259 11.1938C7.61259 11.5125 7.72041 11.7797 7.93603 11.9953C8.15166 12.2109 8.41884 12.3188 8.73759 12.3188ZM13.5563 12.3188C13.875 12.3188 14.1422 12.2109 14.3578 11.9953C14.5734 11.7797 14.6813 11.5125 14.6813 11.1938C14.6813 10.875 14.5734 10.6078 14.3578 10.3922C14.1422 10.1766 13.875 10.0688 13.5563 10.0688C13.2375 10.0688 12.9703 10.1766 12.7547 10.3922C12.5391 10.6078 12.4313 10.875 12.4313 11.1938C12.4313 11.5125 12.5391 11.7797 12.7547 11.9953C12.9703 12.2109 13.2375 12.3188 13.5563 12.3188ZM18.2438 12.3188C18.5626 12.3188 18.8298 12.2109 19.0454 11.9953C19.261 11.7797 19.3688 11.5125 19.3688 11.1938C19.3688 10.875 19.261 10.6078 19.0454 10.3922C18.8298 10.1766 18.5626 10.0688 18.2438 10.0688C17.9251 10.0688 17.6579 10.1766 17.4423 10.3922C17.2267 10.6078 17.1188 10.875 17.1188 11.1938C17.1188 11.5125 17.2267 11.7797 17.4423 11.9953C17.6579 12.2109 17.9251 12.3188 18.2438 12.3188ZM2.25 24.75V4.12509C2.25 3.61884 2.43591 3.17972 2.80772 2.80772C3.17972 2.43591 3.61884 2.25 4.12509 2.25H22.8749C23.3812 2.25 23.8203 2.43591 24.1923 2.80772C24.5641 3.17972 24.75 3.61884 24.75 4.12509V18.3749C24.75 18.8812 24.5641 19.3203 24.1923 19.6923C23.8203 20.0641 23.3812 20.25 22.8749 20.25H6.75L2.25 24.75ZM5.94366 18.3749H22.8749V4.12509H4.12509V20.297L5.94366 18.3749Z" fill="#222222"/>
</svg>
