<svg width="320" height="278" viewBox="0 0 320 278" fill="none" xmlns="http://www.w3.org/2000/svg">
<path d="M235.171 163.536L212.019 108.734H161.615L138.868 86.2355H226.613L246.342 132.927L290.665 110.933L253.143 22.544H157.651V0H267.692L319.402 121.747L235.171 163.536Z" fill="white" fill-opacity="0.02"/>
<path d="M96.3479 77.8961L73.0605 132.927L28.7377 110.933L66.2589 22.544H157.652V0H51.7099L0 121.747L84.2313 163.536L103.87 117.073L178.868 192.403L201.299 214.947L241.613 255.408L264.09 277.952H295.62L96.3479 77.8961Z" fill="white" fill-opacity="0.02"/>
<path d="M84.3207 255.409L101.122 214.949H201.299L178.867 192.405H86.4377L50.8984 277.953H264.089L241.612 255.409H84.3207Z" fill="white" fill-opacity="0.02"/>
</svg>
