<svg width="28" height="28" viewBox="0 0 28 28" fill="none" xmlns="http://www.w3.org/2000/svg">
<path d="M4.5 22V20.0555H6.83333V11.4221C6.83333 9.7954 7.31624 8.34193 8.28204 7.06171C9.24765 5.78168 10.5148 4.96667 12.0833 4.61667V3.91667C12.0833 3.43055 12.2535 3.01736 12.5938 2.67708C12.934 2.3368 13.3472 2.16667 13.8333 2.16667C14.3194 2.16667 14.7326 2.3368 15.0729 2.67708C15.4132 3.01736 15.5833 3.43055 15.5833 3.91667V4.61667C17.1519 4.96667 18.419 5.78168 19.3846 7.06171C20.3504 8.34193 20.8333 9.7954 20.8333 11.4221V20.0555H23.1667V22H4.5ZM13.8333 25.5C13.1917 25.5 12.6424 25.2715 12.1854 24.8146C11.7285 24.3576 11.5 23.8083 11.5 23.1667H16.1667C16.1667 23.8083 15.9382 24.3576 15.4813 24.8146C15.0243 25.2715 14.475 25.5 13.8333 25.5ZM8.77788 20.0555H18.8888V11.4221C18.8888 10.0221 18.3963 8.8296 17.4112 7.84454C16.426 6.85929 15.2333 6.36667 13.8333 6.36667C12.4333 6.36667 11.2407 6.85929 10.2555 7.84454C9.2704 8.8296 8.77788 10.0221 8.77788 11.4221V20.0555Z" fill="#222222"/>
</svg>
