<svg width="32" height="32" viewBox="0 0 32 32" fill="none" xmlns="http://www.w3.org/2000/svg">
<path d="M5.33331 25.3333V23.111H7.99998V13.2443C7.99998 11.3852 8.55187 9.7241 9.65565 8.26099C10.7592 6.7981 12.2073 5.86666 14 5.46666V4.66666C14 4.1111 14.1944 3.63888 14.5833 3.24999C14.9722 2.8611 15.4444 2.66666 16 2.66666C16.5555 2.66666 17.0278 2.8611 17.4166 3.24999C17.8055 3.63888 18 4.1111 18 4.66666V5.46666C19.7926 5.86666 21.2408 6.7981 22.3443 8.26099C23.4481 9.7241 24 11.3852 24 13.2443V23.111H26.6666V25.3333H5.33331ZM16 29.3333C15.2666 29.3333 14.6389 29.0722 14.1166 28.55C13.5944 28.0278 13.3333 27.4 13.3333 26.6667H18.6666C18.6666 27.4 18.4055 28.0278 17.8833 28.55C17.3611 29.0722 16.7333 29.3333 16 29.3333ZM10.2223 23.111H21.7776V13.2443C21.7776 11.6443 21.2148 10.2814 20.089 9.15566C18.963 8.02966 17.6 7.46666 16 7.46666C14.4 7.46666 13.037 8.02966 11.911 9.15566C10.7852 10.2814 10.2223 11.6443 10.2223 13.2443V23.111Z" fill="#222222"/>
</svg>
