<svg width="32" height="32" viewBox="0 0 32 32" fill="none" xmlns="http://www.w3.org/2000/svg">
<path d="M5.33337 25.3333V23.111H8.00004V13.2443C8.00004 11.3852 8.55193 9.72407 9.65571 8.26096C10.7593 6.79807 12.2074 5.86663 14 5.46663V4.66663C14 4.11107 14.1945 3.63885 14.5834 3.24996C14.9723 2.86107 15.4445 2.66663 16 2.66663C16.5556 2.66663 17.0278 2.86107 17.4167 3.24996C17.8056 3.63885 18 4.11107 18 4.66663V5.46663C19.7927 5.86663 21.2408 6.79807 22.3444 8.26096C23.4482 9.72407 24 11.3852 24 13.2443V23.111H26.6667V25.3333H5.33337ZM16 29.3333C15.2667 29.3333 14.6389 29.0722 14.1167 28.55C13.5945 28.0277 13.3334 27.4 13.3334 26.6666H18.6667C18.6667 27.4 18.4056 28.0277 17.8834 28.55C17.3612 29.0722 16.7334 29.3333 16 29.3333ZM10.2224 23.111H21.7777V13.2443C21.7777 11.6443 21.2148 10.2814 20.089 9.15563C18.963 8.02963 17.6 7.46663 16 7.46663C14.4 7.46663 13.037 8.02963 11.911 9.15563C10.7853 10.2814 10.2224 11.6443 10.2224 13.2443V23.111Z" fill="#EE0000"/>
</svg>
