<svg width="83" height="80" viewBox="0 0 83 80" fill="none" xmlns="http://www.w3.org/2000/svg">
<rect width="83" height="80" fill="#303030"/>
<g clip-path="url(#clip0_80_404)">
<path d="M32.8193 27.3908L28.3776 25.1728L32.1387 16.2694H41.2927H50.8613L54.6224 25.1728L50.1807 27.3908L48.2019 22.6847H39.4144L41.6942 24.9563H46.7403L49.0637 30.4747L57.5 26.2617L52.3187 14H41.2927H30.6813L25.5 26.2617L33.9363 30.4747L35.9063 25.7953L43.4198 33.3822L45.6669 35.6516L49.7073 39.7306L51.9565 42H55.1177L35.1515 21.8457L32.8193 27.3908Z" fill="url(#paint0_linear_80_404)"/>
<path d="M33.9472 39.7306L35.6314 35.6516H45.6668L43.4198 33.3822H34.161L30.5984 42H51.9564L49.7072 39.7306H33.9472Z" fill="white"/>
</g>
<path opacity="0.6" d="M33.373 52.51C33.5796 52.2833 33.743 52.0867 33.863 51.92C33.983 51.7533 34.073 51.6067 34.133 51.48C34.193 51.3467 34.2296 51.23 34.243 51.13C34.263 51.0233 34.273 50.9233 34.273 50.83V50.75C34.273 50.4633 34.1596 50.24 33.933 50.08C33.713 49.9133 33.413 49.83 33.033 49.83C32.8996 49.83 32.763 49.8467 32.623 49.88C32.4896 49.9067 32.3563 49.96 32.223 50.04C32.0896 50.12 31.9596 50.23 31.833 50.37C31.7063 50.5033 31.583 50.6733 31.463 50.88L30.703 50.39C30.7896 50.2367 30.8963 50.0767 31.023 49.91C31.1496 49.7367 31.303 49.58 31.483 49.44C31.6696 49.2933 31.8863 49.1733 32.133 49.08C32.3863 48.9867 32.6796 48.94 33.013 48.94C33.3796 48.94 33.703 48.9867 33.983 49.08C34.263 49.1667 34.4963 49.29 34.683 49.45C34.8763 49.61 35.0196 49.8033 35.113 50.03C35.213 50.25 35.263 50.49 35.263 50.75V50.85C35.263 51.2433 35.1596 51.6133 34.953 51.96C34.7463 52.3067 34.4796 52.6533 34.153 53L31.903 55.4H35.523V56.26H30.683V55.43L33.373 52.51ZM41.2465 53.21C41.2465 54.23 41.0365 55.0133 40.6165 55.56C40.2032 56.1 39.5632 56.37 38.6965 56.37C37.8365 56.37 37.1965 56.0967 36.7765 55.55C36.3565 55.0033 36.1465 54.2233 36.1465 53.21V52.09C36.1465 51.0767 36.3598 50.3 36.7865 49.76C37.2132 49.2133 37.8498 48.94 38.6965 48.94C39.5498 48.94 40.1865 49.2133 40.6065 49.76C41.0332 50.3 41.2465 51.0767 41.2465 52.09V53.21ZM40.2365 52.08C40.2365 51.64 40.1965 51.2767 40.1165 50.99C40.0432 50.7033 39.9365 50.4767 39.7965 50.31C39.6565 50.1433 39.4932 50.0267 39.3065 49.96C39.1198 49.8933 38.9165 49.86 38.6965 49.86C38.4832 49.86 38.2832 49.8933 38.0965 49.96C37.9098 50.0267 37.7465 50.1467 37.6065 50.32C37.4665 50.4867 37.3565 50.7133 37.2765 51C37.1965 51.28 37.1565 51.64 37.1565 52.08V53.22C37.1565 53.66 37.1965 54.0267 37.2765 54.32C37.3565 54.6067 37.4665 54.8333 37.6065 55C37.7465 55.1667 37.9098 55.2833 38.0965 55.35C38.2832 55.4167 38.4832 55.45 38.6965 55.45C38.9165 55.45 39.1198 55.4167 39.3065 55.35C39.4932 55.2833 39.6565 55.1667 39.7965 55C39.9365 54.8333 40.0432 54.6067 40.1165 54.32C40.1965 54.0333 40.2365 53.6667 40.2365 53.22V52.08ZM44.58 52.51C44.7867 52.2833 44.95 52.0867 45.07 51.92C45.19 51.7533 45.28 51.6067 45.34 51.48C45.4 51.3467 45.4367 51.23 45.45 51.13C45.47 51.0233 45.48 50.9233 45.48 50.83V50.75C45.48 50.4633 45.3667 50.24 45.14 50.08C44.92 49.9133 44.62 49.83 44.24 49.83C44.1067 49.83 43.97 49.8467 43.83 49.88C43.6967 49.9067 43.5633 49.96 43.43 50.04C43.2967 50.12 43.1667 50.23 43.04 50.37C42.9133 50.5033 42.79 50.6733 42.67 50.88L41.91 50.39C41.9967 50.2367 42.1033 50.0767 42.23 49.91C42.3567 49.7367 42.51 49.58 42.69 49.44C42.8767 49.2933 43.0933 49.1733 43.34 49.08C43.5933 48.9867 43.8867 48.94 44.22 48.94C44.5867 48.94 44.91 48.9867 45.19 49.08C45.47 49.1667 45.7033 49.29 45.89 49.45C46.0833 49.61 46.2267 49.8033 46.32 50.03C46.42 50.25 46.47 50.49 46.47 50.75V50.85C46.47 51.2433 46.3667 51.6133 46.16 51.96C45.9533 52.3067 45.6867 52.6533 45.36 53L43.11 55.4H46.73V56.26H41.89V55.43L44.58 52.51ZM51.7035 51.66V53.87H52.7235V54.71H51.7035V56.26H50.7235V54.71H47.1235V53.97L50.5135 49.05H51.6035L48.2835 53.87H50.7235V51.66H51.7035ZM13.9184 67.26H12.9284V60.05H15.5384C15.9051 60.05 16.2317 60.1 16.5184 60.2C16.8051 60.3 17.0451 60.4367 17.2384 60.61C17.4317 60.7833 17.5784 60.99 17.6784 61.23C17.7851 61.47 17.8384 61.7333 17.8384 62.02V62.28C17.8384 62.6867 17.7317 63.0467 17.5184 63.36C17.3117 63.6733 17.0151 63.9067 16.6284 64.06L18.0584 67.26H16.9884L15.6884 64.25H13.9184V67.26ZM13.9184 63.41H15.2984C15.8584 63.41 16.2551 63.3067 16.4884 63.1C16.7284 62.8867 16.8484 62.6033 16.8484 62.25V62.05C16.8484 61.6967 16.7317 61.4167 16.4984 61.21C16.2651 61.0033 15.8984 60.9 15.3984 60.9H13.9184V63.41ZM23.3637 60.05V60.9H19.8637V63.14H23.1537V63.99H19.8637V66.41H23.4337V67.26H18.8737V60.05H23.3637ZM29.5703 66.45C29.2103 66.7967 28.8169 67.0367 28.3903 67.17C27.9636 67.3033 27.5069 67.37 27.0203 67.37C26.5869 67.37 26.1936 67.3033 25.8403 67.17C25.4869 67.0433 25.1836 66.8467 24.9303 66.58C24.6769 66.3133 24.4803 65.9833 24.3403 65.59C24.2003 65.1967 24.1303 64.7333 24.1303 64.2V63.11C24.1303 62.5833 24.2003 62.1233 24.3403 61.73C24.4803 61.3367 24.6769 61.0067 24.9303 60.74C25.1903 60.4733 25.4969 60.2733 25.8503 60.14C26.2036 60.0067 26.5936 59.94 27.0203 59.94C27.5203 59.94 27.9569 60.0033 28.3303 60.13C28.7036 60.25 29.0603 60.4433 29.4003 60.71L28.8903 61.52C28.5636 61.2533 28.2503 61.0767 27.9503 60.99C27.6569 60.9033 27.3469 60.86 27.0203 60.86C26.7469 60.86 26.4936 60.9067 26.2603 61C26.0336 61.0933 25.8336 61.2367 25.6603 61.43C25.4936 61.6233 25.3636 61.87 25.2703 62.17C25.1769 62.47 25.1303 62.8267 25.1303 63.24V64.07C25.1303 64.4833 25.1769 64.84 25.2703 65.14C25.3636 65.44 25.4936 65.6867 25.6603 65.88C25.8336 66.0733 26.0336 66.2167 26.2603 66.31C26.4936 66.4033 26.7469 66.45 27.0203 66.45C27.3669 66.45 27.7136 66.3967 28.0603 66.29C28.4069 66.1833 28.7303 65.9833 29.0303 65.69L29.5703 66.45ZM32.9958 67.37C32.5625 67.37 32.1658 67.3033 31.8058 67.17C31.4525 67.0433 31.1458 66.8467 30.8858 66.58C30.6258 66.3133 30.4225 65.9833 30.2758 65.59C30.1358 65.1967 30.0658 64.7333 30.0658 64.2V63.11C30.0658 62.5833 30.1358 62.1233 30.2758 61.73C30.4225 61.3367 30.6258 61.0067 30.8858 60.74C31.1458 60.4733 31.4558 60.2733 31.8158 60.14C32.1758 60.0067 32.5692 59.94 32.9958 59.94C33.4225 59.94 33.8158 60.0067 34.1758 60.14C34.5358 60.2733 34.8458 60.4733 35.1058 60.74C35.3658 61.0067 35.5658 61.3367 35.7058 61.73C35.8525 62.1233 35.9258 62.5833 35.9258 63.11V64.2C35.9258 64.7333 35.8525 65.1967 35.7058 65.59C35.5658 65.9833 35.3658 66.3133 35.1058 66.58C34.8458 66.8467 34.5358 67.0433 34.1758 67.17C33.8158 67.3033 33.4225 67.37 32.9958 67.37ZM32.9958 60.84C32.7158 60.84 32.4558 60.8867 32.2158 60.98C31.9825 61.0667 31.7792 61.2067 31.6058 61.4C31.4392 61.5867 31.3058 61.8333 31.2058 62.14C31.1125 62.44 31.0658 62.8 31.0658 63.22V64.09C31.0658 64.51 31.1125 64.8733 31.2058 65.18C31.3058 65.48 31.4392 65.7267 31.6058 65.92C31.7792 66.1067 31.9825 66.2467 32.2158 66.34C32.4558 66.4267 32.7158 66.47 32.9958 66.47C33.2758 66.47 33.5325 66.4267 33.7658 66.34C34.0058 66.2467 34.2092 66.1067 34.3758 65.92C34.5492 65.7267 34.6825 65.48 34.7758 65.18C34.8758 64.8733 34.9258 64.51 34.9258 64.09V63.22C34.9258 62.8 34.8758 62.44 34.7758 62.14C34.6825 61.8333 34.5492 61.5867 34.3758 61.4C34.2092 61.2067 34.0058 61.0667 33.7658 60.98C33.5325 60.8867 33.2758 60.84 32.9958 60.84ZM38.1564 62.06C38.123 61.9867 38.093 61.9167 38.0664 61.85C38.0397 61.7767 38.013 61.7033 37.9864 61.63C37.9597 61.5567 37.9297 61.4733 37.8964 61.38C37.863 61.2867 37.8264 61.18 37.7864 61.06V67.26H36.8464V60.05H38.3064L40.3064 64.77L42.2564 60.05H43.7064V67.26H42.7564V61.06C42.723 61.1933 42.6897 61.3067 42.6564 61.4C42.6297 61.4867 42.603 61.5667 42.5764 61.64C42.5564 61.7133 42.533 61.7833 42.5064 61.85C42.4797 61.9167 42.4497 61.9867 42.4164 62.06L40.6964 66.06H39.8564L38.1564 62.06ZM46.1525 62.06C46.1191 61.9867 46.0891 61.9167 46.0625 61.85C46.0358 61.7767 46.0091 61.7033 45.9825 61.63C45.9558 61.5567 45.9258 61.4733 45.8925 61.38C45.8591 61.2867 45.8225 61.18 45.7825 61.06V67.26H44.8425V60.05H46.3025L48.3025 64.77L50.2525 60.05H51.7025V67.26H50.7525V61.06C50.7191 61.1933 50.6858 61.3067 50.6525 61.4C50.6258 61.4867 50.5991 61.5667 50.5725 61.64C50.5525 61.7133 50.5291 61.7833 50.5025 61.85C50.4758 61.9167 50.4458 61.9867 50.4125 62.06L48.6925 66.06H47.8525L46.1525 62.06ZM57.3286 60.05V60.9H53.8286V63.14H57.1186V63.99H53.8286V66.41H57.3986V67.26H52.8386V60.05H57.3286ZM59.4551 60.05L62.2551 64.91C62.3285 65.03 62.4085 65.1833 62.4951 65.37C62.5885 65.55 62.6785 65.7467 62.7651 65.96V60.05H63.6851V67.26H62.5451L59.7451 62.42C59.6718 62.2867 59.5885 62.13 59.4951 61.95C59.4085 61.77 59.3218 61.5733 59.2351 61.36V67.26H58.3151V60.05H59.4551ZM67.2168 60.05C68.2102 60.05 68.9635 60.3167 69.4768 60.85C69.9902 61.3767 70.2468 62.14 70.2468 63.14V64.17C70.2468 65.17 69.9968 65.9367 69.4968 66.47C68.9968 66.9967 68.2368 67.26 67.2168 67.26H64.8268V60.05H67.2168ZM65.8168 66.38H67.1268C67.4468 66.38 67.7368 66.34 67.9968 66.26C68.2568 66.1733 68.4768 66.04 68.6568 65.86C68.8435 65.68 68.9868 65.4467 69.0868 65.16C69.1868 64.8733 69.2368 64.5267 69.2368 64.12V63.19C69.2368 62.7833 69.1868 62.4367 69.0868 62.15C68.9868 61.8633 68.8435 61.63 68.6568 61.45C68.4768 61.2633 68.2568 61.13 67.9968 61.05C67.7368 60.9633 67.4468 60.92 67.1268 60.92H65.8168V66.38Z" fill="white"/>
<defs>
<linearGradient id="paint0_linear_80_404" x1="41.5" y1="6.92257" x2="41.5" y2="26.2539" gradientUnits="userSpaceOnUse">
<stop stop-color="white"/>
<stop offset="1" stop-color="#FFC91F"/>
</linearGradient>
<clipPath id="clip0_80_404">
<rect width="32" height="28" fill="white" transform="translate(25.5 14)"/>
</clipPath>
</defs>
</svg>
